<svg xmlns="http://www.w3.org/2000/svg" viewBox="0 0 1000 1000"><path d="M744.1 796.87h-84.19c7.36-31.57 11.58-66.31 12.62-102h101.06a273.39 273.39 0 0 1-29.49 102zM608.41 925.3c14.73-22.09 27.34-48.39 36.83-77.89h65.21a276.5 276.5 0 0 1-102.04 77.89zM520 796.87v-102h101c-2.08 34.75-6.3 69.44-14.75 102zm0 147.33v-96.79h71.57c-17.92 47.36-42.15 83.15-71.57 96.79zm-49.5-299.91H368.45a636.11 636.11 0 0 1 14.75-102h86.26v102zm0 152.58h-87.36a524.56 524.56 0 0 1-13.71-102h102.06l.11 102zm0 146.29c-22.09-10.52-43.14-34.74-60-69.44a271 271 0 0 1-11.5-26.31h71.57zM279 847.41h65.22a529.4 529.4 0 0 0 20 49.43c5.26 10.53 10.52 20 16.82 28.4A275.75 275.75 0 0 1 279 847.41zm-32.61-50.54c-15.78-31.57-26.31-65.21-29.49-102h101a531.47 531.47 0 0 0 12.61 102zm0-254.63h84.19c-7.35 31.57-11.56 66.32-12.61 102H217c3.08-35.68 13.61-70.43 29.39-102zm135.77-127.32c-14.75 22.09-27.36 48.39-36.83 77.89H279c27.35-33.72 63.14-60.03 103.16-77.89zm329.33 127.32h31.57c15.79 31.57 26.31 65.21 29.5 102h-101a266.27 266.27 0 0 0-3.19-41c-12.6 11.56-29.49 17.86-47.35 17.86h-2.08c1 7.35 1 15.78 2.08 23.13H520v-102h11.56l-62.1-96.79v46.3h-71.57c12.6-34.74 29.47-63.13 49.43-81l-38.91-60C268.48 389.65 165.32 518 165.32 669.56c0 182.08 148.38 330.44 330.45 330.44s330.44-148.36 330.44-330.44a326.34 326.34 0 0 0-67.36-198.91z"/><path d="M622 108.71a104.19 104.19 0 1 1-104.15 104.18A103.76 103.76 0 0 1 622 108.71zm-25.22 457.76c11.57 17.86 38.92 17.86 50.53 0l158.89-247.3a209.06 209.06 0 0 0 28.4-111.54c-3.13-109.44-91.54-201-201-207.34C510.51-6 408.41 90.78 408.41 212.83c0 38.92 10.52 74.72 28.38 106.29z"/></svg>